<svg width="18" height="15" viewBox="0 0 18 15" fill="none" xmlns="http://www.w3.org/2000/svg">
<path d="M16.8522 0.830079H12.5411C11.6159 0.830079 10.7115 1.09558 9.93327 1.59646L9.01377 2.18583L8.09426 1.59646C7.31684 1.09568 6.4114 0.829585 5.48648 0.830079H1.17534C0.841834 0.830079 0.572388 1.09935 0.572388 1.43264V12.128C0.572388 12.4613 0.841834 12.7306 1.17534 12.7306H5.48648C6.41164 12.7306 7.31607 12.9961 8.09426 13.497L8.93086 14.0355C8.95536 14.0506 8.98362 14.06 9.01188 14.06C9.04015 14.06 9.06841 14.0524 9.09291 14.0355L9.92951 13.497C10.7096 12.9961 11.6159 12.7306 12.5411 12.7306H16.8522C17.1857 12.7306 17.4551 12.4613 17.4551 12.128V1.43264C17.4551 1.09935 17.1857 0.830079 16.8522 0.830079ZM6.97879 8.22082C6.97879 8.29802 6.9185 8.36204 6.84501 8.36204H3.3441C3.27061 8.36204 3.21032 8.29802 3.21032 8.22082V7.37347C3.21032 7.29627 3.27061 7.23225 3.3441 7.23225H6.84313C6.91661 7.23225 6.97691 7.29627 6.97691 7.37347V8.22082H6.97879ZM6.97879 5.58463C6.97879 5.66183 6.9185 5.72585 6.84501 5.72585H3.3441C3.27061 5.72585 3.21032 5.66183 3.21032 5.58463V4.73728C3.21032 4.66008 3.27061 4.59606 3.3441 4.59606H6.84313C6.91661 4.59606 6.97691 4.66008 6.97691 4.73728V5.58463H6.97879ZM14.8172 8.22082C14.8172 8.29802 14.7569 8.36204 14.6834 8.36204H11.1825C11.109 8.36204 11.0487 8.29802 11.0487 8.22082V7.37347C11.0487 7.29627 11.109 7.23225 11.1825 7.23225H14.6816C14.755 7.23225 14.8153 7.29627 14.8153 7.37347V8.22082H14.8172ZM14.8172 5.58463C14.8172 5.66183 14.7569 5.72585 14.6834 5.72585H11.1825C11.109 5.72585 11.0487 5.66183 11.0487 5.58463V4.73728C11.0487 4.66008 11.109 4.59606 11.1825 4.59606H14.6816C14.755 4.59606 14.8153 4.66008 14.8153 4.73728V5.58463H14.8172Z" fill="#62616F"/>
</svg>
