<svg width="17" height="18" viewBox="0 0 17 18" fill="none" xmlns="http://www.w3.org/2000/svg">
<path d="M4.22069 1.19325C4.22069 1.05342 4.1651 0.919316 4.06616 0.82044C3.96722 0.721564 3.83303 0.666016 3.6931 0.666016C3.55318 0.666016 3.41899 0.721564 3.32004 0.82044C3.2211 0.919316 3.16552 1.05342 3.16552 1.19325V1.72049H2.11034C1.55065 1.72049 1.01387 1.94268 0.618106 2.33819C0.222339 2.73369 0 3.27011 0 3.82944L0 4.88391H16.8828V3.82944C16.8828 3.27011 16.6604 2.73369 16.2647 2.33819C15.8689 1.94268 15.3321 1.72049 14.7724 1.72049H13.7172V1.19325C13.7172 1.05342 13.6617 0.919316 13.5627 0.82044C13.4638 0.721564 13.3296 0.666016 13.1897 0.666016C13.0497 0.666016 12.9155 0.721564 12.8166 0.82044C12.7177 0.919316 12.6621 1.05342 12.6621 1.19325V1.72049H4.22069V1.19325ZM9.92073 11.4702C10.5802 11.4702 11.1701 10.9598 11.1701 10.2259C11.1701 9.34856 10.614 8.92888 9.94606 8.92888C9.32772 8.92888 8.71361 9.33696 8.71361 10.2048C8.71361 11.0663 9.28657 11.4702 9.92073 11.4702Z" fill="#62616F"/>
<path d="M16.8828 15.4278V5.9375H0V15.4278C0 15.9871 0.222339 16.5235 0.618106 16.919C1.01387 17.3145 1.55065 17.5367 2.11034 17.5367H14.7724C15.3321 17.5367 15.8689 17.3145 16.2647 16.919C16.6604 16.5235 16.8828 15.9871 16.8828 15.4278ZM9.85109 14.1519C8.67985 14.1519 8.10372 13.3431 8.05413 12.6682H8.77481C8.82019 13.0584 9.18317 13.5329 9.8838 13.5329C10.7744 13.5329 11.2566 12.6387 11.2608 11.251H11.2323C11.0709 11.6876 10.5602 12.084 9.77301 12.084C8.874 12.084 8.00454 11.4408 8.00454 10.2176C8.00454 9.01868 8.92359 8.31007 9.90068 8.31007C11.1373 8.31007 11.9614 9.08405 11.9614 11.1234C11.9614 13.0267 11.1785 14.1508 9.85109 14.1508V14.1519ZM6.80164 8.42079V14.0432H6.08835V9.18423H6.07568C5.76968 9.34873 5.14397 9.73255 4.74828 10.0036V9.26964C5.19234 8.95872 5.65502 8.67524 6.13372 8.42079H6.80059H6.80164Z" fill="#62616F"/>
</svg>
