<svg width="17" height="18" viewBox="0 0 17 18" fill="none" xmlns="http://www.w3.org/2000/svg">
<path d="M8.09993 17.6344C8.57313 17.6362 9.02847 17.447 9.3624 17.1116L16.3595 10.1208C16.542 9.93911 16.6828 9.71999 16.7722 9.4786C16.8616 9.2372 16.8975 8.97929 16.8774 8.72267L16.431 2.86419C16.4001 2.43767 16.2162 2.03663 15.9131 1.73483C15.6099 1.43303 15.2079 1.25076 14.781 1.22156L8.91866 0.77544C8.87223 0.765625 8.82669 0.765625 8.78027 0.765625C8.30706 0.765625 7.85439 0.952997 7.52137 1.28848L0.523319 8.27833C0.357428 8.44405 0.22583 8.6408 0.136047 8.85735C0.0462627 9.0739 5.34058e-05 9.30601 5.34058e-05 9.54041C5.34058e-05 9.77482 0.0462627 10.0069 0.136047 10.2235C0.22583 10.44 0.357428 10.6368 0.523319 10.8025L6.83746 17.1116C7.00285 17.2778 7.19959 17.4096 7.41629 17.4993C7.63299 17.5891 7.86535 17.635 8.09993 17.6344ZM11.8882 3.97057C12.1819 3.97065 12.471 4.04311 12.7299 4.18151C12.9888 4.31991 13.2096 4.51999 13.3727 4.76403C13.5358 5.00806 13.6361 5.28852 13.6648 5.58057C13.6935 5.87261 13.6497 6.16723 13.5373 6.43832C13.4249 6.70941 13.2473 6.9486 13.0203 7.13472C12.7932 7.32084 12.5238 7.44813 12.2358 7.50533C11.9477 7.56252 11.6501 7.54786 11.3691 7.46263C11.0881 7.37739 10.8325 7.22423 10.6249 7.0167L10.6186 7.01134L10.6124 7.0051L10.6195 7.01134C10.3713 6.76113 10.2028 6.44309 10.1352 6.09731C10.0676 5.75153 10.1039 5.39349 10.2396 5.06831C10.3752 4.74312 10.6042 4.46535 10.8976 4.27C11.191 4.07465 11.5357 3.97046 11.8882 3.97057Z" fill="#73757E"/>
</svg>
