<svg width="32" height="30" viewBox="0 0 32 30" fill="none" xmlns="http://www.w3.org/2000/svg">
<path d="M15.0533 15L19.7733 10.575C20.0217 10.3408 20.1611 10.024 20.1611 9.69375C20.1611 9.36351 20.0217 9.0467 19.7733 8.8125C19.6494 8.69534 19.5019 8.60234 19.3394 8.53888C19.177 8.47542 19.0027 8.44275 18.8267 8.44275C18.6507 8.44275 18.4764 8.47542 18.3139 8.53888C18.1514 8.60234 18.004 8.69534 17.88 8.8125L12.2267 14.1125C12.1017 14.2287 12.0025 14.367 11.9348 14.5193C11.8671 14.6716 11.8323 14.835 11.8323 15C11.8323 15.165 11.8671 15.3284 11.9348 15.4807C12.0025 15.633 12.1017 15.7713 12.2267 15.8875L17.88 21.25C18.0046 21.3658 18.1523 21.4575 18.3148 21.5197C18.4772 21.5819 18.6512 21.6135 18.8267 21.6125C19.0021 21.6135 19.1761 21.5819 19.3385 21.5197C19.501 21.4575 19.6488 21.3658 19.7733 21.25C20.0217 21.0158 20.1611 20.699 20.1611 20.3687C20.1611 20.0385 20.0217 19.7217 19.7733 19.4875L15.0533 15Z" fill="#5A5A5A"/>
</svg>
